<svg width="36" height="36" viewBox="0 0 36 36" fill="none" xmlns="http://www.w3.org/2000/svg">
<g clip-path="url(#clip0_13_2)">
<path d="M36 32C36 33.0609 35.5786 34.0783 34.8284 34.8284C34.0783 35.5786 33.0609 36 32 36H4C2.93913 36 1.92172 35.5786 1.17157 34.8284C0.421427 34.0783 0 33.0609 0 32V4C0 2.93913 0.421427 1.92172 1.17157 1.17157C1.92172 0.421427 2.93913 0 4 0L32 0C33.0609 0 34.0783 0.421427 34.8284 1.17157C35.5786 1.92172 36 2.93913 36 4V32Z" fill="#88C9F9"/>
<path d="M19.341 35.455C18.9822 35.8042 18.5012 35.9996 18.0005 35.9996C17.4998 35.9996 17.0188 35.8042 16.66 35.455L10.027 28.926C9.28999 28.2 9.09499 26.894 9.59299 26.022L17.093 7.575C17.592 6.704 18.408 6.704 18.906 7.575L26.406 26.022C26.904 26.893 26.709 28.2 25.972 28.925L19.341 35.455Z" fill="#DD2E44"/>
<path d="M18 14.668C18.949 14.668 20.004 13.716 20.899 12.477L18.906 7.575C18.407 6.704 17.591 6.704 17.093 7.575L15.1 12.477C15.997 13.716 17.051 14.668 18 14.668Z" fill="#A0041E"/>
<path d="M23 5.778C23 7.742 20.209 12.89 18 12.89C15.791 12.89 13 7.742 13 5.778C13 3.995 15.791 3 18 3C20.209 3 23 3.995 23 5.778Z" fill="#DD2E44"/>
<path d="M0 4V6.254C2.074 9.024 6.779 14.005 8 14.005C10.209 14.005 19 3.209 19 1C19 0 18 0 17 0H4C2.93913 0 1.92172 0.421427 1.17157 1.17157C0.421427 1.92172 0 2.93913 0 4Z" fill="#4CA0D3"/>
<path d="M17 1C17 3.209 25.791 14.005 28 14.005C29.221 14.005 33.926 9.024 36 6.254V4C36 2.93913 35.5786 1.92172 34.8284 1.17157C34.0783 0.421427 33.0609 0 32 0L19 0C18 0 17 0 17 1Z" fill="#4CA0D3"/>
<path d="M3.99998 0C3.73298 0 3.47398 0.029 3.22198 0.079C4.40498 1.736 10.562 3 18 3C25.438 3 31.595 1.736 32.778 0.079C32.5219 0.0272299 32.2613 0.000769298 32 0L3.99998 0Z" fill="#226699"/>
</g>
<defs>
<clipPath id="clip0_13_2">
<rect width="36" height="36" fill="white"/>
</clipPath>
</defs>
</svg>
